<svg width="1440" height="900" xmlns="http://www.w3.org/2000/svg" font-family="Inter, -apple-system, sans-serif">
  <!-- Page background -->
  <rect width="1440" height="900" fill="#F8FAFC"/>

  <!-- Sidebar -->
  <rect width="220" height="900" fill="#0F172A"/>
  <!-- Logo -->
  <rect x="16" y="16" width="188" height="48" rx="8" fill="#1E293B"/>
  <text x="36" y="44" font-size="15" font-weight="700" fill="#FFFFFF">🎨 ArtsDiva IMS</text>
  <!-- Nav: Artists (active) -->
  <rect x="12" y="84" width="196" height="40" rx="6" fill="#3730A3"/>
  <text x="36" y="109" font-size="13" font-weight="600" fill="#FFFFFF">Artists</text>
  <!-- Nav: Artworks -->
  <text x="36" y="155" font-size="13" fill="#94A3B8">Artworks</text>
  <!-- Nav: Clients -->
  <text x="36" y="199" font-size="13" fill="#94A3B8">Clients</text>
  <!-- Divider -->
  <line x1="20" y1="220" x2="200" y2="220" stroke="#1E293B" stroke-width="1"/>
  <!-- User avatar -->
  <circle cx="36" cy="860" r="16" fill="#1E293B"/>
  <text x="60" y="865" font-size="12" fill="#94A3B8">Rahul Kumar</text>

  <!-- Top bar -->
  <rect x="220" y="0" width="1220" height="64" fill="#FFFFFF"/>
  <line x1="220" y1="64" x2="1440" y2="64" stroke="#E2E8F0" stroke-width="1"/>
  <text x="248" y="40" font-size="22" font-weight="700" fill="#0F172A">Artists</text>
  <!-- Add button -->
  <rect x="1296" y="16" width="124" height="36" rx="8" fill="#4F46E5"/>
  <text x="1320" y="39" font-size="13" font-weight="600" fill="#FFFFFF">+ Add Artist</text>

  <!-- Content area -->
  <!-- Search bar -->
  <rect x="248" y="88" width="320" height="40" rx="8" fill="#FFFFFF" stroke="#E2E8F0" stroke-width="1.5"/>
  <text x="272" y="113" font-size="13" fill="#94A3B8">🔍  Search artists...</text>

  <!-- Table container -->
  <rect x="248" y="152" width="1164" height="32" rx="0" fill="#F1F5F9"/>
  <!-- Table header text -->
  <text x="268" y="173" font-size="11" font-weight="700" fill="#64748B" letter-spacing="0.8">NAME</text>
  <text x="548" y="173" font-size="11" font-weight="700" fill="#64748B" letter-spacing="0.8">COMMISSION TERMS</text>
  <text x="848" y="173" font-size="11" font-weight="700" fill="#64748B" letter-spacing="0.8">MOU STATUS</text>
  <text x="1148" y="173" font-size="11" font-weight="700" fill="#64748B" letter-spacing="0.8">ACTIONS</text>

  <!-- Row 1 -->
  <rect x="248" y="184" width="1164" height="56" fill="#FFFFFF" stroke="#F1F5F9" stroke-width="1"/>
  <text x="268" y="217" font-size="14" font-weight="500" fill="#0F172A">Sarah Collins</text>
  <text x="548" y="217" font-size="14" fill="#475569">30% on sale</text>
  <rect x="848" y="200" width="84" height="24" rx="12" fill="#DCFCE7"/>
  <text x="862" y="217" font-size="12" font-weight="500" fill="#16A34A">✓  Signed</text>
  <text x="1158" y="219" font-size="20" fill="#CBD5E1" letter-spacing="2">•••</text>

  <!-- Row 2 -->
  <rect x="248" y="240" width="1164" height="56" fill="#FAFAFA" stroke="#F1F5F9" stroke-width="1"/>
  <text x="268" y="273" font-size="14" font-weight="500" fill="#0F172A">James Okoro</text>
  <text x="548" y="273" font-size="14" fill="#475569">25% on sale</text>
  <rect x="848" y="256" width="84" height="24" rx="12" fill="#FEF9C3"/>
  <text x="860" y="273" font-size="12" font-weight="500" fill="#CA8A04">⏳  Pending</text>
  <text x="1158" y="275" font-size="20" fill="#CBD5E1" letter-spacing="2">•••</text>

  <!-- Row 3 -->
  <rect x="248" y="296" width="1164" height="56" fill="#FFFFFF" stroke="#F1F5F9" stroke-width="1"/>
  <text x="268" y="329" font-size="14" font-weight="500" fill="#0F172A">Mia Lawson</text>
  <text x="548" y="329" font-size="14" fill="#475569">35% on sale</text>
  <rect x="848" y="312" width="84" height="24" rx="12" fill="#DCFCE7"/>
  <text x="862" y="329" font-size="12" font-weight="500" fill="#16A34A">✓  Signed</text>
  <text x="1158" y="331" font-size="20" fill="#CBD5E1" letter-spacing="2">•••</text>

  <!-- Row 4 -->
  <rect x="248" y="352" width="1164" height="56" fill="#FAFAFA" stroke="#F1F5F9" stroke-width="1"/>
  <text x="268" y="385" font-size="14" font-weight="500" fill="#0F172A">Tom Rivera</text>
  <text x="548" y="385" font-size="14" fill="#475569">20% on sale</text>
  <rect x="848" y="368" width="60" height="24" rx="12" fill="#F1F5F9"/>
  <text x="862" y="385" font-size="12" font-weight="500" fill="#94A3B8">— N/A</text>
  <text x="1158" y="387" font-size="20" fill="#CBD5E1" letter-spacing="2">•••</text>

  <!-- Footer count -->
  <text x="268" y="432" font-size="12" fill="#94A3B8">Showing 4 of 4 artists</text>

  <!-- Screen label -->
  <rect x="248" y="840" width="180" height="28" rx="4" fill="#EEF2FF"/>
  <text x="264" y="859" font-size="11" font-weight="600" fill="#4F46E5">Screen 1A — Artist List</text>
</svg>
