<svg width="1440" height="900" xmlns="http://www.w3.org/2000/svg" font-family="Inter, -apple-system, sans-serif">
  <rect width="1440" height="900" fill="#F8FAFC"/>

  <!-- Sidebar -->
  <rect width="220" height="900" fill="#0F172A"/>
  <rect x="16" y="16" width="188" height="48" rx="8" fill="#1E293B"/>
  <text x="36" y="44" font-size="15" font-weight="700" fill="#FFFFFF">🎨 ArtsDiva IMS</text>
  <text x="36" y="109" font-size="13" fill="#94A3B8">Artists</text>
  <text x="36" y="153" font-size="13" fill="#94A3B8">Artworks</text>
  <rect x="12" y="168" width="196" height="40" rx="6" fill="#3730A3"/>
  <text x="36" y="193" font-size="13" font-weight="600" fill="#FFFFFF">Clients</text>
  <line x1="20" y1="220" x2="200" y2="220" stroke="#1E293B" stroke-width="1"/>
  <circle cx="36" cy="860" r="16" fill="#1E293B"/>
  <text x="60" y="865" font-size="12" fill="#94A3B8">Rahul Kumar</text>

  <!-- Top bar -->
  <rect x="220" y="0" width="1220" height="64" fill="#FFFFFF"/>
  <line x1="220" y1="64" x2="1440" y2="64" stroke="#E2E8F0" stroke-width="1"/>
  <text x="248" y="38" font-size="13" fill="#94A3B8">← Clients</text>
  <text x="322" y="38" font-size="13" fill="#CBD5E1">/</text>
  <text x="336" y="38" font-size="13" font-weight="600" fill="#0F172A">James Okoro</text>
  <rect x="1296" y="16" width="100" height="36" rx="8" fill="#4F46E5"/>
  <text x="1328" y="39" font-size="13" font-weight="600" fill="#FFFFFF">Save</text>

  <!-- Left column: form -->
  <!-- CONTACT INFO -->
  <text x="248" y="100" font-size="11" font-weight="700" fill="#64748B" letter-spacing="0.8">CONTACT INFO</text>
  <!-- Name -->
  <text x="248" y="124" font-size="12" fill="#64748B">Name</text>
  <rect x="248" y="132" width="560" height="40" rx="8" fill="#FFFFFF" stroke="#E2E8F0" stroke-width="1.5"/>
  <text x="264" y="157" font-size="14" fill="#0F172A">James Okoro</text>
  <!-- Email + Phone -->
  <text x="248" y="192" font-size="12" fill="#64748B">Email</text>
  <rect x="248" y="200" width="270" height="40" rx="8" fill="#FFFFFF" stroke="#E2E8F0" stroke-width="1.5"/>
  <text x="264" y="225" font-size="14" fill="#0F172A">james@example.com</text>
  <text x="536" y="192" font-size="12" fill="#64748B">Phone</text>
  <rect x="536" y="200" width="272" height="40" rx="8" fill="#FFFFFF" stroke="#E2E8F0" stroke-width="1.5"/>
  <text x="552" y="225" font-size="14" fill="#0F172A">+44 7700 900 111</text>
  <!-- Address -->
  <text x="248" y="260" font-size="12" fill="#64748B">Address</text>
  <rect x="248" y="268" width="560" height="40" rx="8" fill="#FFFFFF" stroke="#E2E8F0" stroke-width="1.5"/>
  <text x="264" y="293" font-size="14" fill="#0F172A">5 Park Row, Manchester</text>

  <!-- PROFILE -->
  <text x="248" y="332" font-size="11" font-weight="700" fill="#64748B" letter-spacing="0.8">PROFILE</text>
  <text x="248" y="356" font-size="12" fill="#64748B">Preferences</text>
  <rect x="248" y="364" width="560" height="40" rx="8" fill="#FFFFFF" stroke="#E2E8F0" stroke-width="1.5"/>
  <text x="264" y="389" font-size="14" fill="#0F172A">Contemporary, large-format abstract works</text>
  <text x="248" y="424" font-size="12" fill="#64748B">Notes</text>
  <rect x="248" y="432" width="560" height="64" rx="8" fill="#FFFFFF" stroke="#E2E8F0" stroke-width="1.5"/>
  <text x="264" y="456" font-size="14" fill="#0F172A">Prefers monthly billing. Interested in new</text>
  <text x="264" y="476" font-size="14" fill="#0F172A">acquisitions from emerging UK artists.</text>

  <!-- Right column: leases -->
  <!-- ACTIVE LEASES -->
  <text x="856" y="100" font-size="11" font-weight="700" fill="#64748B" letter-spacing="0.8">ACTIVE LEASES  (1)</text>
  <rect x="856" y="112" width="556" height="100" rx="10" fill="#EFF6FF" stroke="#BFDBFE" stroke-width="1.5"/>
  <rect x="876" y="128" width="84" height="22" rx="11" fill="#DBEAFE"/>
  <text x="888" y="143" font-size="11" font-weight="500" fill="#1D4ED8">ACTIVE</text>
  <!-- Image thumb -->
  <rect x="876" y="156" width="56" height="40" rx="6" fill="#DBEAFE"/>
  <text x="904" y="182" font-size="18" fill="#1D4ED8" text-anchor="middle">🖼</text>
  <text x="944" y="170" font-size="13" font-weight="600" fill="#0F172A">Blue Form</text>
  <text x="944" y="188" font-size="12" fill="#64748B">Sarah Collins  ·  Since 01 Jan 2026  ·  £200/mo</text>

  <!-- LEASE HISTORY -->
  <text x="856" y="240" font-size="11" font-weight="700" fill="#64748B" letter-spacing="0.8">LEASE HISTORY  (2 past)</text>
  <!-- Table header -->
  <rect x="856" y="252" width="556" height="32" fill="#F1F5F9"/>
  <text x="872" y="273" font-size="11" font-weight="700" fill="#64748B" letter-spacing="0.5">ARTWORK</text>
  <text x="1012" y="273" font-size="11" font-weight="700" fill="#64748B" letter-spacing="0.5">ARTIST</text>
  <text x="1152" y="273" font-size="11" font-weight="700" fill="#64748B" letter-spacing="0.5">DATES</text>
  <text x="1312" y="273" font-size="11" font-weight="700" fill="#64748B" letter-spacing="0.5">STATUS</text>
  <!-- Row 1 -->
  <rect x="856" y="284" width="556" height="48" fill="#FFFFFF" stroke="#F1F5F9" stroke-width="1"/>
  <text x="872" y="313" font-size="13" fill="#0F172A">Storm I</text>
  <text x="1012" y="313" font-size="13" fill="#475569">Mia Lawson</text>
  <text x="1152" y="313" font-size="13" fill="#475569">Mar–Aug 2024</text>
  <rect x="1312" y="298" width="80" height="20" rx="10" fill="#DCFCE7"/>
  <text x="1322" y="312" font-size="11" fill="#16A34A">Completed</text>
  <!-- Row 2 -->
  <rect x="856" y="332" width="556" height="48" fill="#FAFAFA" stroke="#F1F5F9" stroke-width="1"/>
  <text x="872" y="361" font-size="13" fill="#0F172A">The Void</text>
  <text x="1012" y="361" font-size="13" fill="#475569">James Okoro</text>
  <text x="1152" y="361" font-size="13" fill="#475569">Jan–Jun 2024</text>
  <rect x="1312" y="346" width="76" height="20" rx="10" fill="#FEE2E2"/>
  <text x="1322" y="360" font-size="11" fill="#DC2626">Cancelled</text>

  <!-- Stats cards -->
  <rect x="856" y="416" width="176" height="80" rx="10" fill="#FFFFFF" stroke="#E2E8F0" stroke-width="1.5"/>
  <text x="876" y="444" font-size="12" fill="#64748B">Total Leases</text>
  <text x="876" y="476" font-size="28" font-weight="700" fill="#0F172A">3</text>
  <rect x="1052" y="416" width="176" height="80" rx="10" fill="#FFFFFF" stroke="#E2E8F0" stroke-width="1.5"/>
  <text x="1072" y="444" font-size="12" fill="#64748B">Active Now</text>
  <text x="1072" y="476" font-size="28" font-weight="700" fill="#4F46E5">1</text>
  <rect x="1248" y="416" width="164" height="80" rx="10" fill="#FFFFFF" stroke="#E2E8F0" stroke-width="1.5"/>
  <text x="1268" y="444" font-size="12" fill="#64748B">Since</text>
  <text x="1268" y="476" font-size="20" font-weight="700" fill="#0F172A">Jan 2024</text>

  <!-- Screen label -->
  <rect x="248" y="840" width="248" height="28" rx="4" fill="#EEF2FF"/>
  <text x="264" y="859" font-size="11" font-weight="600" fill="#4F46E5">Screen 3B — Client Detail / Edit</text>
</svg>
